<svg xmlns="http://www.w3.org/2000/svg" viewBox="0 -1 16 16" shape-rendering="crispEdges"><path stroke="#0d0d0d" d="M9 0h1M9 1h1M6 3h1m2 0h2M6 5h1M6 6h1m3 1h1M6 8h1m3 0h1m-2 3h2"/><path stroke="#3c3c3e" d="M5 2h8M5 3h1m5 0h2M5 4h1m5 0h2M5 5h1m5 0h2M5 6h1m5 0h2M5 7h1m5 0h2M5 8h1m5 0h2M5 9h7m-7 1h2m4 0h1m-7 1h2m4 0h1m-7 1h7m-7 1h7"/><path stroke="#0e0e0e" d="M7 3h2M6 4h1m2 4h1m-3 3h2"/><path stroke="#9ce8d3" d="M7 4h3M7 5h3M7 6h3M7 7h3"/><path stroke="#101010" d="M10 4h1m-1 1h1m-1 1h1M6 7h1m0 1h1m0 2h1m1 0h1"/><path stroke="#0f0f0f" d="M8 8h1"/><path stroke="#111" d="M7 10h1m1 0h1"/></svg>