<svg xmlns="http://www.w3.org/2000/svg" viewBox="0 -1 16 16" shape-rendering="crispEdges"><path stroke="#404040" d="M0 0h16M0 1h1m14 0h1M0 2h1m14 0h1M0 3h1m14 0h1M0 4h1m14 0h1M0 5h1m14 0h1M0 6h1m14 0h1M0 7h1m14 0h1M0 8h1m14 0h1M0 9h1m14 0h1M0 10h1m14 0h1M0 11h1m14 0h1M0 12h1m14 0h1M0 13h1m14 0h1M0 14h1m14 0h1M0 15h16"/><path stroke="#585858" d="M1 1h1m12 0h1M1 14h1m12 0h1"/><path stroke="#505050" d="M2 1h12M1 2h1m12 0h1M1 3h1m12 0h1M1 4h1m12 0h1M1 5h1m12 0h1M1 6h1m12 0h1M1 7h1m12 0h1M1 8h1m12 0h1M1 9h1m12 0h1M1 10h1m12 0h1M1 11h1m12 0h1M1 12h1m12 0h1M1 13h1m12 0h1M2 14h12"/><path stroke="#3e3b3b" d="M2 2h12M2 3h12M2 4h2m8 0h2M2 5h2m8 0h2M2 6h2m8 0h2M2 7h2m8 0h2M2 8h2m8 0h2M2 9h2m8 0h2M2 10h2m8 0h2M2 11h2m8 0h2M2 12h12M2 13h12"/><path stroke="#f7d841" d="M4 4h1"/><path stroke="#f9e572" d="M5 4h1M4 5h1"/><path stroke="#fcd439" d="M6 4h1M4 6h1M4 8h1"/><path stroke="#fae45b" d="M7 4h1M4 7h1"/><path stroke="#fbdc4a" d="M8 4h1"/><path stroke="#fccf34" d="M9 4h1"/><path stroke="#fbd746" d="M10 4h1"/><path stroke="#e6bd46" d="M11 4h1"/><path stroke="#feda40" d="M5 5h1m1 2h1M6 8h1m1 0h1M5 9h1"/><path stroke="#fef16d" d="M6 5h1"/><path stroke="#fee94d" d="M7 5h1M5 6h2M5 7h1"/><path stroke="#fad232" d="M8 5h1"/><path stroke="#f7c425" d="M9 5h1m0 2h1"/><path stroke="#fbdb3f" d="M10 5h1"/><path stroke="#e9c550" d="M11 5h1"/><path stroke="#fcd73a" d="M7 6h1m2 0h1"/><path stroke="#f7cf2c" d="M8 6h1m1 4h1"/><path stroke="#fee449" d="M9 6h1m0 3h1"/><path stroke="#e5b332" d="M11 6h1"/><path stroke="#fee048" d="M6 7h1M5 8h1"/><path stroke="#fee147" d="M8 7h1m-4 3h1"/><path stroke="#fcda3c" d="M9 7h1M7 9h1m1 0h1m-4 1h1"/><path stroke="#e1a926" d="M11 7h1m-5 4h1"/><path stroke="#fede45" d="M7 8h1"/><path stroke="#fcd538" d="M9 8h1M8 9h1"/><path stroke="#f7d12f" d="M10 8h1"/><path stroke="#e9b738" d="M11 8h1m-4 3h1"/><path stroke="#f9c72a" d="M4 9h1"/><path stroke="#ffe74a" d="M6 9h1"/><path stroke="#e0ad27" d="M11 9h1m-3 2h1"/><path stroke="#f8c024" d="M4 10h1m2 0h1"/><path stroke="#f8cb2b" d="M8 10h1"/><path stroke="#fedc43" d="M9 10h1"/><path stroke="#e8b93a" d="M11 10h1m-2 1h1"/><path stroke="#e5ad2b" d="M4 11h1"/><path stroke="#e3ab28" d="M5 11h2"/><path stroke="#d8a531" d="M11 11h1"/></svg>