<svg xmlns="http://www.w3.org/2000/svg" viewBox="0 -1 16 16" shape-rendering="crispEdges"><path stroke="#2a2a2a" d="M8 0h3M7 1h1m2 0h2M7 2h1m3 0h1M7 3h1m0 1h1m4 0h2m-1 1h2"/><path stroke="#b8b8b8" d="M8 1h2M8 2h2m3 3h1m-1 1h2m-2 1h2"/><path stroke="#b6b6b6" d="M10 2h1M9 3h1"/><path stroke="#2d2d2d" d="M8 3h1"/><path stroke="#bfbfbf" d="M10 3h1m1 2h1m-1 1h1"/><path stroke="#4e3815" d="M11 3h1m-2 1h1M8 6h1M6 8h1m-3 2h1"/><path stroke="#281e0b" d="M12 3h1m-1 1h1m-2 1h1m-2 1h1M9 7h1M8 8h1M7 9h1m-2 1h1m-2 1h1m-2 1h1m-2 1h1"/><path stroke="rgba(0,0,0,0.00392156862745098)" d="M13 3h1m-3 6h1m-4 1h1m3 1h1m-6 1h1"/><path stroke="#282828" d="M9 4h1"/><path stroke="#694e1e" d="M11 4h1m-2 1h1M7 8h1m-3 2h1"/><path stroke="#3a2f01" d="M9 5h1M7 7h1M5 9h1"/><path stroke="#8e6b28" d="M9 6h1M8 7h1M6 9h1m-4 3h1"/><path stroke="#191919" d="M11 6h1m3 0h1m-5 1h2m2 0h1m-4 1h3M2 14h1m-2 1h2"/><path stroke="rgba(0,0,0,0.011764705882352941)" d="M11 8h1m-3 2h1"/><path stroke="rgba(34,34,34,0.058823529411764705)" d="M10 9h1"/><path stroke="rgba(179,179,179,0.0392156862745098)" d="M12 9h1"/><path stroke="rgba(0,0,0,0.00784313725490196)" d="M13 9h1"/><path stroke="rgba(128,128,128,0.00784313725490196)" d="M7 10h1m1 1h1"/><path stroke="rgba(255,255,255,0.00392156862745098)" d="M12 10h1m-3 1h1"/><path stroke="rgba(42,42,42,0.023529411764705882)" d="M13 10h1m-5 2h1"/><path stroke="#4f3a15" d="M3 11h1"/><path stroke="#6c511e" d="M4 11h1"/><path stroke="rgba(153,153,153,0.0196078431372549)" d="M8 11h1"/><path stroke="rgba(28,28,28,0.07058823529411765)" d="M11 11h1"/><path stroke="#4c3815" d="M2 12h1"/><path stroke="rgba(24,24,24,0.08235294117647059)" d="M8 12h1"/><path stroke="rgba(36,36,36,0.027450980392156862)" d="M10 12h1"/><path stroke="#1b1b1b" d="M0 13h2m-2 1h1m-1 1h1"/><path stroke="#6a4f1e" d="M2 13h1"/><path stroke="#656565" d="M1 14h1"/></svg>