<svg xmlns="http://www.w3.org/2000/svg" viewBox="0 -1 16 16" shape-rendering="crispEdges"><path stroke="#25888b" d="M0 0h2M0 1h1m2 0h1M1 3h1"/><path stroke="rgba(96,96,96,0.03137254901960784)" d="M2 0h1m1 1h1M0 2h1m0 2h1m0 2h1"/><path stroke="rgba(64,64,64,0.03137254901960784)" d="M3 0h1m1 1h1m0 1h2M0 3h1m7 0h2M1 5h1m0 2h1m0 1h1M3 9h1m9 3h1m-2 1h1"/><path stroke="#6dceb9" d="M1 1h1m0 1h2"/><path stroke="#31b3b7" d="M2 1h1M1 2h1m2 0h1M2 3h2M2 4h1m7 6h1m0 1h1"/><path stroke="#4a4a4a" d="M5 2h1m1 1h1m1 1h1M2 5h1m6 0h1M3 7h1"/><path stroke="#4d4d4d" d="M4 3h1m1 2h1"/><path stroke="#4b4b4b" d="M5 3h1m1 2h1M4 8h1"/><path stroke="#3b3b3b" d="M6 3h1"/><path stroke="#949494" d="M3 4h1m1 2h1"/><path stroke="#bebebe" d="M4 4h1"/><path stroke="#939393" d="M5 4h1M4 6h1"/><path stroke="#909090" d="M6 4h1M5 8h1"/><path stroke="#646464" d="M7 4h1"/><path stroke="#484848" d="M8 4h1"/><path stroke="#666" d="M3 5h1"/><path stroke="#676767" d="M4 5h2M3 6h1m1 1h1"/><path stroke="#383838" d="M8 5h1"/><path stroke="rgba(32,32,32,0.03137254901960784)" d="M10 5h2m0 1h1m0 2h1m0 1h1m0 1h1M6 13h1m1 0h1m0 1h1m0 1h1"/><path stroke="#bdbdbd" d="M6 6h1"/><path stroke="#8f8f8f" d="M7 6h1"/><path stroke="#474747" d="M8 6h1"/><path stroke="#282522" d="M9 6h3M6 9h1"/><path stroke="#656565" d="M4 7h1"/><path stroke="#494949" d="M6 7h1"/><path stroke="#373737" d="M7 7h1"/><path stroke="#2d2621" d="M8 7h1M7 8h1"/><path stroke="#cb570a" d="M9 7h1M7 9h1"/><path stroke="#c5550a" d="M10 7h1m0 1h1m0 1h1"/><path stroke="#151515" d="M11 7h2m-1 1h1m0 1h1m0 1h1m0 1h1M4 12h1m6 0h2m2 0h1m-1 1h1m-5 1h1m2 0h1m-2 1h1"/><path stroke="#626262" d="M6 8h1"/><path stroke="#cc580a" d="M8 8h1"/><path stroke="#e5650e" d="M9 8h1M8 9h1"/><path stroke="#df630f" d="M10 8h1m0 1h1m-4 1h1m3 0h1m-4 1h1"/><path stroke="#404040" d="M4 9h2m0 2h1"/><path stroke="#c0540c" d="M9 9h1m3 1h1"/><path stroke="#292623" d="M10 9h1m-2 1h1m1 0h1m-5 1h1m2 0h1m-3 1h1m0 1h1m0 1h1"/><path stroke="rgba(33,33,33,0.09019607843137255)" d="M5 10h1"/><path stroke="#2a2724" d="M6 10h1"/><path stroke="#c6560b" d="M7 10h1m0 1h1m0 1h1"/><path stroke="rgba(17,17,17,0.058823529411764705)" d="M4 11h1"/><path stroke="#212121" d="M5 11h1m0 1h1m-3 1h2"/><path stroke="#242424" d="M12 11h1m1 0h1"/><path stroke="#434343" d="M13 11h1m0 1h1m-4 1h1m0 1h1"/><path stroke="rgba(64,64,64,0.9882352941176471)" d="M5 12h1"/><path stroke="rgba(34,34,34,0.058823529411764705)" d="M7 12h1"/><path stroke="#df620e" d="M10 12h1"/><path stroke="#c1550d" d="M10 13h1"/><path stroke="rgba(32,32,32,0.06274509803921569)" d="M13 13h1"/><path stroke="#222" d="M14 13h1m-2 1h1"/><path stroke="#141414" d="M11 15h1"/><path stroke="#232323" d="M12 15h1"/></svg>