<svg xmlns="http://www.w3.org/2000/svg" viewBox="0 -1 16 16" shape-rendering="crispEdges"><path stroke="#444" d="M9 0h3M8 1h1m2 0h1M7 2h1m4 0h1M6 3h1m6 0h1M6 4h1m7 0h2M6 5h2m7 0h1M8 6h1m6 0h1M8 7h2m4 0h1M9 8h2m2 0h1M8 9h1m1 0h3m-6 1h1m-2 1h1m-2 1h1m-2 1h1m-2 1h1m-4 1h3"/><path stroke="#6dceb9" d="M9 1h1M8 2h1M7 3h1m1 0h1m0 1h1m0 1h1m0 1h1m1 0h1m-2 1h1m-2 1h1"/><path stroke="#25888b" d="M10 1h1m0 1h1m0 1h1M7 4h1m5 0h1M8 5h1m5 0h1M9 6h1m0 1h1m0 1h1m-9 5h1m-2 1h1"/><path stroke="#31b3b7" d="M9 2h2M8 3h1m1 0h2M8 4h2m1 0h2M9 5h2m1 0h2m-4 1h2m1 0h1m-3 1h2M2 13h1m-2 1h1"/><path stroke="#4f4f4f" d="M7 7h1M6 8h1M5 9h1m-2 1h1m-2 1h1m-2 1h1m-2 1h1m-2 1h1"/><path stroke="#e5650e" d="M7 8h1M6 9h1m-2 1h1m-2 1h1m-2 1h1"/><path stroke="#cb570a" d="M8 8h1M7 9h1m-2 1h1m-2 1h1m-2 1h1"/></svg>