<svg xmlns="http://www.w3.org/2000/svg" viewBox="0 -1 16 16" shape-rendering="crispEdges"><path stroke="#603a01" d="M9 0h1"/><path stroke="#5e3901" d="M10 0h1"/><path stroke="#683e01" d="M8 1h1"/><path stroke="#fff8ec" d="M9 1h2"/><path stroke="#603b01" d="M11 1h1"/><path stroke="#663d01" d="M9 2h1"/><path stroke="#fff7e9" d="M10 2h1"/><path stroke="#fff" d="M11 2h1m-1 1h2m-1 1h2m-1 1h1m-1 1h1"/><path stroke="#623a01" d="M12 2h1"/><path stroke="#5b3501" d="M10 3h1"/><path stroke="#643801" d="M13 3h1"/><path stroke="#573001" d="M11 4h1"/><path stroke="#623301" d="M14 4h1"/><path stroke="#5b3001" d="M12 5h1"/><path stroke="#603101" d="M14 5h1"/><path stroke="#5d2f01" d="M12 6h1"/><path stroke="#623001" d="M14 6h1m-1 1h1"/><path stroke="#572c01" d="M12 7h1"/><path stroke="#fff4e8" d="M13 7h1"/><path stroke="#4c2801" d="M6 8h1"/><path stroke="#4f2701" d="M11 8h1m-1 1h1m-2 3h1"/><path stroke="#ffeddc" d="M12 8h1"/><path stroke="#fff2e6" d="M13 8h1"/><path stroke="#683201" d="M14 8h1"/><path stroke="#4b2701" d="M5 9h1"/><path stroke="#ffca94" d="M6 9h1"/><path stroke="#482501" d="M7 9h1"/><path stroke="#492501" d="M10 9h1m-2 1h1m-2 2h1"/><path stroke="#fff5ea" d="M12 9h1"/><path stroke="#623101" d="M13 9h1"/><path stroke="#4e3815" d="M4 10h1"/><path stroke="#694e1e" d="M5 10h1"/><path stroke="#ffc790" d="M6 10h1"/><path stroke="#ffd2a6" d="M7 10h1m-1 1h1"/><path stroke="#482401" d="M8 10h1m-2 2h1"/><path stroke="#ffb670" d="M10 10h1"/><path stroke="#ffc893" d="M11 10h1"/><path stroke="#ffe7cf" d="M12 10h1"/><path stroke="#5e2f01" d="M13 10h1"/><path stroke="#4f3a15" d="M3 11h1"/><path stroke="#6c511e" d="M4 11h1"/><path stroke="#281e0b" d="M5 11h1m-2 1h1m-2 1h1"/><path stroke="#482301" d="M6 11h1"/><path stroke="#ffc68e" d="M8 11h1"/><path stroke="#ffbc78" d="M9 11h1"/><path stroke="#ffad5e" d="M10 11h1"/><path stroke="#522901" d="M11 11h1"/><path stroke="#552a01" d="M12 11h1"/><path stroke="#4c3815" d="M2 12h1"/><path stroke="#8e6b28" d="M3 12h1"/><path stroke="#4a2601" d="M9 12h1"/><path stroke="#422201" d="M0 13h1m-1 1h1m-1 1h2"/><path stroke="#432101" d="M1 13h1"/><path stroke="#6a4f1e" d="M2 13h1"/><path stroke="#e07c1a" d="M1 14h1"/><path stroke="#3d1f01" d="M2 14h1"/><path stroke="#432201" d="M2 15h1"/></svg>