<svg xmlns="http://www.w3.org/2000/svg" viewBox="0 -1 16 16" shape-rendering="crispEdges"><path stroke="#afb4b7" d="M10 2h1"/><path stroke="#adadad" d="M11 2h1"/><path stroke="#9c9c9a" d="M9 3h1"/><path stroke="#4f5457" d="M10 3h1"/><path stroke="#939391" d="M9 4h1"/><path stroke="#294342" d="M10 4h1"/><path stroke="#b2b2b2" d="M13 4h1"/><path stroke="#0a80da" d="M9 5h1"/><path stroke="#313328" d="M10 5h1"/><path stroke="#243735" d="M11 5h1"/><path stroke="#464c4c" d="M12 5h1"/><path stroke="#808686" d="M13 5h1"/><path stroke="#0c8af9" d="M8 6h1"/><path stroke="#0475d1" d="M9 6h1"/><path stroke="#0a6fc7" d="M10 6h1"/><path stroke="#5e5e5c" d="M11 6h1"/><path stroke="#666664" d="M12 6h1"/><path stroke="#098cf6" d="M7 7h1"/><path stroke="#1174c9" d="M8 7h1"/><path stroke="#0c588c" d="M9 7h1"/><path stroke="#0f89ff" d="M6 8h1"/><path stroke="#0c71c9" d="M7 8h1"/><path stroke="#0b547d" d="M8 8h1"/><path stroke="#1086dd" d="M5 9h1"/><path stroke="#1068b2" d="M6 9h1"/><path stroke="#084f85" d="M7 9h1"/><path stroke="#0387ec" d="M4 10h1"/><path stroke="#1165ab" d="M5 10h1"/><path stroke="#074f97" d="M6 10h1"/><path stroke="#0a84ff" d="M3 11h1"/><path stroke="#0d60a6" d="M4 11h1"/><path stroke="#0a5388" d="M5 11h1"/><path stroke="#0e81eb" d="M2 12h1"/><path stroke="#08609f" d="M3 12h1"/><path stroke="#074f8a" d="M4 12h1"/><path stroke="#107be3" d="M1 13h1"/><path stroke="#105797" d="M2 13h1"/><path stroke="#0e4f93" d="M3 13h1"/><path stroke="#095d9d" d="M1 14h1"/><path stroke="#075094" d="M2 14h1"/></svg>